DGAgnadeen-Bold.ufo
<glyph name="quotedbl" format="2">
  <advance width="957"/>
  <unicode hex="0022"/>
  <outline>
    <contour>
      <point x="198" y="1517" type="line"/>
      <point x="412" y="1517" type="line"/>
      <point x="412" y="909" type="line"/>
      <point x="198" y="909" type="line"/>
    </contour>
    <contour>
      <point x="545" y="1517" type="line"/>
      <point x="759" y="1517" type="line"/>
      <point x="759" y="909" type="line"/>
      <point x="545" y="909" type="line"/>
    </contour>
  </outline>
</glyph>
<glyph name="quotesingle" format="2">
  <advance width="654"/>
  <unicode hex="0027"/>
  <outline>
    <contour>
      <point x="220" y="1517" type="line"/>
      <point x="434" y="1517" type="line"/>
      <point x="434" y="909" type="line"/>
      <point x="220" y="909" type="line"/>
    </contour>
  </outline>
</glyph>
<glyph name="plus" format="2">
  <advance width="1339"/>
  <unicode hex="002B"/>
  <outline>
    <contour>
      <point x="794" y="658" type="line"/>
      <point x="1240" y="658" type="line"/>
      <point x="1240" y="409" type="line"/>
      <point x="794" y="409" type="line"/>
      <point x="794" y="-40" type="line"/>
      <point x="544" y="-40" type="line"/>
      <point x="544" y="409" type="line"/>
      <point x="98" y="409" type="line"/>
      <point x="98" y="658" type="line"/>
      <point x="544" y="658" type="line"/>
      <point x="544" y="658" type="line"/>
      <point x="544" y="1106" type="line"/>
      <point x="794" y="1106" type="line"/>
    </contour>
  </outline>
</glyph>
<glyph name="period" format="2">
  <advance width="679"/>
  <unicode hex="002E"/>
  <outline>
    <contour>
      <point x="170" y="297" type="line"/>
      <point x="507" y="297" type="line"/>
      <point x="507" y="-40" type="line"/>
      <point x="170" y="-40" type="line"/>
    </contour>
  </outline>
</glyph>
<glyph name="slash" format="2">
  <advance width="843"/>
  <unicode hex="002F"/>
  <outline>
    <contour>
      <point x="613" y="1567" type="line"/>
      <point x="880" y="1567" type="line"/>
      <point x="231" y="-75" type="line"/>
      <point x="-37" y="-75" type="line"/>
    </contour>
  </outline>
</glyph>
<glyph name="zero" format="2">
  <advance width="1353"/>
  <unicode hex="0030"/>
  <outline>
    <contour>
      <point x="677" y="-42" type="qcurve"/>
      <point x="493" y="-42"/>
      <point x="227" y="149"/>
      <point x="83" y="499"/>
      <point x="83" y="739" type="qcurve"/>
      <point x="83" y="979"/>
      <point x="228" y="1327"/>
      <point x="494" y="1517"/>
      <point x="677" y="1517" type="qcurve"/>
      <point x="860" y="1517"/>
      <point x="1126" y="1328"/>
      <point x="1270" y="980"/>
      <point x="1270" y="740" type="qcurve"/>
      <point x="1270" y="501"/>
      <point x="1127" y="150"/>
      <point x="861" y="-42"/>
    </contour>
    <contour>
      <point x="677" y="225" type="qcurve"/>
      <point x="802" y="225"/>
      <point x="943" y="490"/>
      <point x="943" y="739" type="qcurve"/>
      <point x="943" y="987"/>
      <point x="801" y="1249"/>
      <point x="677" y="1249" type="qcurve"/>
      <point x="554" y="1249"/>
      <point x="410" y="986"/>
      <point x="410" y="739" type="qcurve"/>
      <point x="410" y="490"/>
      <point x="552" y="225"/>
    </contour>
  </outline>
</glyph>
<glyph name="two" format="2">
  <advance width="1255"/>
  <unicode hex="0032"/>
  <outline>
    <contour>
      <point x="85" y="1029" type="line"/>
      <point x="85" y="1171"/>
      <point x="224" y="1390"/>
      <point x="469" y="1515"/>
      <point x="628" y="1515" type="qcurve"/>
      <point x="782" y="1515"/>
      <point x="1018" y="1402"/>
      <point x="1151" y="1205"/>
      <point x="1151" y="1079" type="qcurve"/>
      <point x="1151" y="986"/>
      <point x="1076" y="824"/>
      <point x="949" y="670"/>
      <point x="869" y="590" type="qcurve"/>
      <point x="520" y="247" type="line"/>
      <point x="520" y="255" type="line"/>
      <point x="1171" y="255" type="line"/>
      <point x="1171" y="-10" type="line"/>
      <point x="102" y="-10" type="line"/>
      <point x="102" y="212" type="line"/>
      <point x="649" y="749" type="line"/>
      <point x="756" y="857"/>
      <point x="837" y="993"/>
      <point x="837" y="1067" type="qcurve"/>
      <point x="837" y="1146"/>
      <point x="716" y="1255"/>
      <point x="618" y="1255" type="qcurve"/>
      <point x="516" y="1255"/>
      <point x="385" y="1128"/>
      <point x="385" y="1029" type="qcurve"/>
      <point x="385" y="1014" type="line"/>
      <point x="85" y="1014" type="line"/>
    </contour>
  </outline>
</glyph>
<glyph name="three" format="2">
  <advance width="1311"/>
  <unicode hex="0033"/>
  <outline>
    <contour>
      <point x="454" y="633" type="line"/>
      <point x="454" y="876" type="line"/>
      <point x="639" y="876" type="line"/>
      <point x="739" y="876"/>
      <point x="860" y="983"/>
      <point x="860" y="1071" type="qcurve"/>
      <point x="860" y="1157"/>
      <point x="746" y="1259"/>
      <point x="637" y="1259" type="qcurve"/>
      <point x="534" y="1259"/>
      <point x="412" y="1147"/>
      <point x="405" y="1045" type="qcurve"/>
      <point x="107" y="1045" type="line"/>
      <point x="119" y="1263"/>
      <point x="412" y="1516"/>
      <point x="650" y="1516" type="qcurve"/>
      <point x="801" y="1516"/>
      <point x="1033" y="1414"/>
      <point x="1165" y="1233"/>
      <point x="1165" y="1113" type="qcurve"/>
      <point x="1165" y="974"/>
      <point x="998" y="786"/>
      <point x="867" y="760" type="qcurve"/>
      <point x="867" y="772" type="line"/>
      <point x="1026" y="757"/>
      <point x="1221" y="564"/>
      <point x="1221" y="408" type="qcurve"/>
      <point x="1221" y="273"/>
      <point x="1072" y="71"/>
      <point x="811" y="-42"/>
      <point x="643" y="-42" type="qcurve"/>
      <point x="395" y="-42"/>
      <point x="93" y="215"/>
      <point x="79" y="432" type="qcurve"/>
      <point x="388" y="432" type="line"/>
      <point x="396" y="334"/>
      <point x="530" y="226"/>
      <point x="647" y="226" type="qcurve"/>
      <point x="757" y="226"/>
      <point x="894" y="338"/>
      <point x="894" y="427" type="qcurve"/>
      <point x="894" y="525"/>
      <point x="761" y="633"/>
      <point x="642" y="633" type="qcurve"/>
    </contour>
  </outline>
</glyph>
<glyph name="six" format="2">
  <advance width="1337"/>
  <unicode hex="0036"/>
  <outline>
    <contour>
      <point x="694" y="-43" type="qcurve"/>
      <point x="537" y="-43"/>
      <point x="284" y="99"/>
      <point x="207" y="233" type="qcurve"/>
      <point x="84" y="429"/>
      <point x="84" y="725" type="qcurve"/>
      <point x="84" y="1093"/>
      <point x="416" y="1517"/>
      <point x="699" y="1517" type="qcurve"/>
      <point x="908" y="1517"/>
      <point x="1205" y="1284"/>
      <point x="1241" y="1089" type="qcurve"/>
      <point x="925" y="1089" type="line"/>
      <point x="901" y="1166"/>
      <point x="779" y="1252"/>
      <point x="697" y="1252" type="qcurve"/>
      <point x="550" y="1252"/>
      <point x="387" y="985"/>
      <point x="391" y="743" type="qcurve"/>
      <point x="380" y="743" type="line"/>
      <point x="424" y="851"/>
      <point x="631" y="983"/>
      <point x="771" y="983" type="qcurve"/>
      <point x="910" y="983"/>
      <point x="1130" y="853"/>
      <point x="1258" y="629"/>
      <point x="1258" y="487" type="qcurve"/>
      <point x="1258" y="334"/>
      <point x="1112" y="94"/>
      <point x="857" y="-43"/>
    </contour>
    <contour>
      <point x="691" y="223" type="qcurve"/>
      <point x="798" y="223"/>
      <point x="944" y="370"/>
      <point x="944" y="478" type="qcurve"/>
      <point x="944" y="589"/>
      <point x="802" y="731"/>
      <point x="692" y="731" type="qcurve"/>
      <point x="583" y="731"/>
      <point x="438" y="590"/>
      <point x="438" y="481" type="qcurve"/>
      <point x="438" y="372"/>
      <point x="583" y="223"/>
    </contour>
  </outline>
</glyph>
<glyph name="seven" format="2">
  <advance width="1192"/>
  <unicode hex="0037"/>
  <outline>
    <contour>
      <point x="171" y="-10" type="line"/>
      <point x="798" y="1224" type="line"/>
      <point x="798" y="1217" type="line"/>
      <point x="64" y="1217" type="line"/>
      <point x="64" y="1482" type="line"/>
      <point x="1116" y="1482" type="line"/>
      <point x="1116" y="1222" type="line"/>
      <point x="510" y="-10" type="line"/>
    </contour>
  </outline>
</glyph>
<glyph name="semicolon" format="2">
  <advance width="679"/>
  <unicode hex="003B"/>
  <outline>
    <contour>
      <point x="170" y="297" type="line"/>
      <point x="507" y="297" type="line"/>
      <point x="507" y="36" type="line"/>
      <point x="510" y="-97"/>
      <point x="381" y="-298"/>
      <point x="172" y="-359" type="qcurve"/>
      <point x="172" y="-144" type="line"/>
      <point x="232" y="-124"/>
      <point x="264" y="-94"/>
      <point x="283" y="-51"/>
      <point x="317" y="102"/>
      <point x="325" y="-40" type="qcurve"/>
      <point x="170" y="-40" type="line"/>
    </contour>
    <contour>
      <point x="507" y="791" type="line"/>
      <point x="170" y="791" type="line"/>
      <point x="170" y="1129" type="line"/>
      <point x="507" y="1129" type="line"/>
    </contour>
  </outline>
</glyph>
<glyph name="question" format="2">
  <advance width="1084"/>
  <unicode hex="003F"/>
  <outline>
    <contour>
      <point x="656" y="406" type="line"/>
      <point x="401" y="406" type="line"/>
      <point x="401" y="538" type="line"/>
      <point x="400" y="649"/>
      <point x="508" y="810"/>
      <point x="620" y="876" type="qcurve"/>
      <point x="700" y="925"/>
      <point x="762" y="1017"/>
      <point x="762" y="1083" type="qcurve"/>
      <point x="762" y="1134"/>
      <point x="714" y="1212"/>
      <point x="621" y="1258"/>
      <point x="557" y="1258" type="qcurve"/>
      <point x="460" y="1258"/>
      <point x="346" y="1155"/>
      <point x="336" y="1026" type="qcurve"/>
      <point x="86" y="1026" type="line"/>
      <point x="94" y="1187"/>
      <point x="207" y="1382"/>
      <point x="418" y="1494"/>
      <point x="564" y="1494" type="qcurve"/>
      <point x="697" y="1494"/>
      <point x="908" y="1391"/>
      <point x="1028" y="1205"/>
      <point x="1028" y="1092" type="qcurve"/>
      <point x="1028" y="851"/>
      <point x="800" y="713" type="qcurve"/>
      <point x="739" y="677"/>
      <point x="679" y="620"/>
      <point x="656" y="557"/>
      <point x="656" y="511" type="qcurve"/>
    </contour>
    <contour>
      <point x="594" y="-50"/>
      <point x="529" y="-50" type="qcurve"/>
      <point x="465" y="-50"/>
      <point x="375" y="40"/>
      <point x="375" y="104" type="qcurve"/>
      <point x="375" y="169"/>
      <point x="465" y="258"/>
      <point x="529" y="258" type="qcurve"/>
      <point x="594" y="258"/>
      <point x="683" y="169"/>
      <point x="683" y="104" type="qcurve"/>
      <point x="683" y="40"/>
    </contour>
  </outline>
</glyph>
<glyph name="Q" format="2">
  <advance width="1521"/>
  <unicode hex="0051"/>
  <outline>
    <contour>
      <point x="761" y="-13" type="qcurve"/>
      <point x="550" y="-13"/>
      <point x="243" y="168"/>
      <point x="75" y="505"/>
      <point x="75" y="738" type="qcurve"/>
      <point x="75" y="969"/>
      <point x="243" y="1307"/>
      <point x="551" y="1490"/>
      <point x="761" y="1490" type="qcurve"/>
      <point x="971" y="1490"/>
      <point x="1278" y="1307"/>
      <point x="1446" y="969"/>
      <point x="1446" y="738" type="qcurve"/>
      <point x="1446" y="547"/>
      <point x="1331" y="248"/>
      <point x="1213" y="148" type="qcurve"/>
      <point x="1391" y="-126" type="line"/>
      <point x="1122" y="-126" type="line"/>
      <point x="1017" y="30" type="line"/>
      <point x="896" y="-13"/>
    </contour>
    <contour>
      <point x="761" y="223" type="qcurve"/>
      <point x="818" y="223"/>
      <point x="879" y="242" type="qcurve"/>
      <point x="724" y="478" type="line"/>
      <point x="974" y="478" type="line"/>
      <point x="1042" y="384" type="line"/>
      <point x="1105" y="458"/>
      <point x="1158" y="630"/>
      <point x="1158" y="738" type="qcurve"/>
      <point x="1158" y="975"/>
      <point x="944" y="1256"/>
      <point x="761" y="1256" type="qcurve"/>
      <point x="577" y="1256"/>
      <point x="363" y="975"/>
      <point x="363" y="738" type="qcurve"/>
      <point x="363" y="503"/>
      <point x="577" y="223"/>
    </contour>
  </outline>
</glyph>
<glyph name="R" format="2">
  <advance width="1285"/>
  <unicode hex="0052"/>
  <outline>
    <contour>
      <point x="402" y="1241" type="line"/>
      <point x="402" y="752" type="line"/>
      <point x="672" y="752" type="line"/>
      <point x="791" y="752"/>
      <point x="923" y="883"/>
      <point x="923" y="997" type="qcurve"/>
      <point x="923" y="1110"/>
      <point x="786" y="1241"/>
      <point x="669" y="1241" type="qcurve"/>
    </contour>
    <contour>
      <point x="402" y="549" type="line"/>
      <point x="402" y="10" type="line"/>
      <point x="120" y="10" type="line"/>
      <point x="120" y="1462" type="line"/>
      <point x="701" y="1462" type="line"/>
      <point x="945" y="1462"/>
      <point x="1213" y="1215"/>
      <point x="1213" y="1003" type="qcurve"/>
      <point x="1213" y="865"/>
      <point x="1081" y="645"/>
      <point x="947" y="589" type="qcurve"/>
      <point x="1249" y="10" type="line"/>
      <point x="929" y="10" type="line"/>
      <point x="684" y="501" type="line"/>
      <point x="597" y="549" type="line"/>
    </contour>
  </outline>
</glyph>
<glyph name="S" format="2">
  <advance width="1272"/>
  <unicode hex="0053"/>
  <outline>
    <contour>
      <point x="66" y="410" type="qcurve"/>
      <point x="338" y="410" type="line"/>
      <point x="349" y="323"/>
      <point x="521" y="209"/>
      <point x="644" y="209" type="qcurve"/>
      <point x="769" y="209"/>
      <point x="925" y="319"/>
      <point x="925" y="406" type="qcurve"/>
      <point x="925" y="484"/>
      <point x="807" y="575"/>
      <point x="674" y="604" type="qcurve"/>
      <point x="486" y="646" type="line"/>
      <point x="97" y="734"/>
      <point x="97" y="1047" type="qcurve"/>
      <point x="97" y="1179"/>
      <point x="236" y="1377"/>
      <point x="481" y="1488"/>
      <point x="639" y="1488" type="qcurve"/>
      <point x="887" y="1488"/>
      <point x="1175" y="1249"/>
      <point x="1181" y="1065" type="qcurve"/>
      <point x="917" y="1065" type="line"/>
      <point x="909" y="1153"/>
      <point x="758" y="1265"/>
      <point x="640" y="1265" type="qcurve"/>
      <point x="525" y="1265"/>
      <point x="381" y="1162"/>
      <point x="381" y="1074" type="qcurve"/>
      <point x="381" y="1000"/>
      <point x="500" y="912"/>
      <point x="625" y="883" type="qcurve"/>
      <point x="800" y="845" type="line"/>
      <point x="1012" y="800"/>
      <point x="1207" y="605"/>
      <point x="1207" y="441" type="qcurve"/>
      <point x="1207" y="233"/>
      <point x="896" y="-15"/>
      <point x="632" y="-15" type="qcurve"/>
      <point x="377" y="-15"/>
      <point x="75" y="220"/>
    </contour>
  </outline>
</glyph>
<glyph name="T" format="2">
  <advance width="1212"/>
  <unicode hex="0054"/>
  <outline>
    <contour>
      <point x="747" y="10" type="line"/>
      <point x="465" y="10" type="line"/>
      <point x="465" y="1228" type="line"/>
      <point x="48" y="1228" type="line"/>
      <point x="48" y="1462" type="line"/>
      <point x="1165" y="1462" type="line"/>
      <point x="1165" y="1228" type="line"/>
      <point x="747" y="1228" type="line"/>
    </contour>
  </outline>
</glyph>
<glyph name="U" format="2">
  <advance width="1429"/>
  <unicode hex="0055"/>
  <outline>
    <contour>
      <point x="402" y="1463" type="line"/>
      <point x="402" y="552" type="line"/>
      <point x="402" y="405"/>
      <point x="564" y="230"/>
      <point x="715" y="230" type="qcurve"/>
      <point x="865" y="230"/>
      <point x="1027" y="405"/>
      <point x="1027" y="552" type="qcurve"/>
      <point x="1027" y="1463" type="line"/>
      <point x="1309" y="1463" type="line"/>
      <point x="1309" y="521" type="line"/>
      <point x="1309" y="362"/>
      <point x="1163" y="121"/>
      <point x="896" y="-15"/>
      <point x="715" y="-15" type="qcurve"/>
      <point x="533" y="-15"/>
      <point x="266" y="121"/>
      <point x="120" y="362"/>
      <point x="120" y="521" type="qcurve"/>
      <point x="120" y="1463" type="line"/>
    </contour>
  </outline>
</glyph>
<glyph name="V" format="2">
  <advance width="1362"/>
  <unicode hex="0056"/>
  <outline>
    <contour>
      <point x="856" y="10" type="line"/>
      <point x="507" y="10" type="line"/>
      <point x="28" y="1462" type="line"/>
      <point x="344" y="1462" type="line"/>
      <point x="666" y="338" type="line"/>
      <point x="705" y="338" type="line"/>
      <point x="1026" y="1462" type="line"/>
      <point x="1335" y="1462" type="line"/>
    </contour>
  </outline>
</glyph>
<glyph name="W" format="2">
  <advance width="1951"/>
  <unicode hex="0057"/>
  <outline>
    <contour>
      <point x="956" y="986" type="line"/>
      <point x="690" y="10" type="line"/>
      <point x="420" y="10" type="line"/>
      <point x="43" y="1462" type="line"/>
      <point x="335" y="1462" type="line"/>
      <point x="556" y="426" type="line"/>
      <point x="593" y="426" type="line"/>
      <point x="856" y="1462" type="line"/>
      <point x="1096" y="1462" type="line"/>
      <point x="1358" y="426" type="line"/>
      <point x="1396" y="426" type="line"/>
      <point x="1617" y="1462" type="line"/>
      <point x="1909" y="1462" type="line"/>
      <point x="1532" y="10" type="line"/>
      <point x="1261" y="10" type="line"/>
      <point x="996" y="986" type="line"/>
    </contour>
  </outline>
</glyph>
<glyph name="X" format="2">
  <advance width="1368"/>
  <unicode hex="0058"/>
  <outline>
    <contour>
      <point x="43" y="10" type="line"/>
      <point x="493" y="735" type="line"/>
      <point x="493" y="749" type="line"/>
      <point x="46" y="1462" type="line"/>
      <point x="378" y="1462" type="line"/>
      <point x="666" y="962" type="line"/>
      <point x="720" y="962" type="line"/>
      <point x="1012" y="1462" type="line"/>
      <point x="1325" y="1462" type="line"/>
      <point x="861" y="743" type="line"/>
      <point x="861" y="730" type="line"/>
      <point x="1320" y="10" type="line"/>
      <point x="999" y="10" type="line"/>
      <point x="702" y="495" type="line"/>
      <point x="645" y="495" type="line"/>
      <point x="346" y="10" type="line"/>
    </contour>
  </outline>
</glyph>
<glyph name="Y" format="2">
  <advance width="1329"/>
  <unicode hex="0059"/>
  <outline>
    <contour>
      <point x="805" y="10" type="line"/>
      <point x="523" y="10" type="line"/>
      <point x="523" y="552" type="line"/>
      <point x="28" y="1462" type="line"/>
      <point x="334" y="1462" type="line"/>
      <point x="642" y="864" type="line"/>
      <point x="692" y="864" type="line"/>
      <point x="1001" y="1462" type="line"/>
      <point x="1302" y="1462" type="line"/>
      <point x="805" y="552" type="line"/>
    </contour>
  </outline>
</glyph>
<glyph name="Z" format="2">
  <advance width="1272"/>
  <unicode hex="005A"/>
  <outline>
    <contour>
      <point x="89" y="10" type="line"/>
      <point x="89" y="198" type="line"/>
      <point x="792" y="1165" type="line"/>
      <point x="792" y="1228" type="line"/>
      <point x="106" y="1228" type="line"/>
      <point x="106" y="1462" type="line"/>
      <point x="1163" y="1462" type="line"/>
      <point x="1163" y="1275" type="line"/>
      <point x="463" y="307" type="line"/>
      <point x="463" y="245" type="line"/>
      <point x="1183" y="245" type="line"/>
      <point x="1183" y="10" type="line"/>
    </contour>
  </outline>
</glyph>
<glyph name="underscore" format="2">
  <advance width="1134"/>
  <unicode hex="005F"/>
  <outline>
    <contour>
      <point x="0" y="-84" type="line"/>
      <point x="1134" y="-84" type="line"/>
      <point x="1134" y="-296" type="line"/>
      <point x="0" y="-296" type="line"/>
    </contour>
  </outline>
</glyph>
<glyph name="q" format="2">
  <advance width="1195"/>
  <unicode hex="0071"/>
  <outline>
    <contour>
      <point x="486" y="1108" type="qcurve"/>
      <point x="599" y="1108"/>
      <point x="765" y="1000"/>
      <point x="796" y="930" type="qcurve"/>
      <point x="832" y="930" type="line"/>
      <point x="832" y="1091" type="line"/>
      <point x="1100" y="1091" type="line"/>
      <point x="1100" y="-340" type="line"/>
      <point x="828" y="-340" type="line"/>
      <point x="828" y="174" type="line"/>
      <point x="793" y="174" type="line"/>
      <point x="765" y="108"/>
      <point x="594" y="0"/>
      <point x="481" y="0" type="qcurve"/>
      <point x="286" y="0"/>
      <point x="56" y="298"/>
      <point x="56" y="556" type="qcurve"/>
      <point x="56" y="813"/>
      <point x="289" y="1108"/>
    </contour>
    <contour>
      <point x="580" y="220" type="qcurve"/>
      <point x="695" y="220"/>
      <point x="829" y="400"/>
      <point x="829" y="554" type="qcurve"/>
      <point x="829" y="708"/>
      <point x="694" y="889"/>
      <point x="580" y="889" type="qcurve"/>
      <point x="464" y="889"/>
      <point x="335" y="708"/>
      <point x="335" y="554" type="qcurve"/>
      <point x="335" y="400"/>
      <point x="464" y="220"/>
    </contour>
  </outline>
</glyph>
<glyph name="r" format="2">
  <advance width="725"/>
  <unicode hex="0072"/>
  <outline>
    <contour>
      <point x="95" y="10" type="line"/>
      <point x="95" y="1084" type="line"/>
      <point x="357" y="1084" type="line"/>
      <point x="357" y="917" type="line"/>
      <point x="389" y="917" type="line"/>
      <point x="412" y="997"/>
      <point x="538" y="1101"/>
      <point x="628" y="1101" type="qcurve"/>
      <point x="677" y="1101"/>
      <point x="701" y="1093" type="qcurve"/>
      <point x="701" y="852" type="line"/>
      <point x="671" y="865"/>
      <point x="605" y="865" type="qcurve"/>
      <point x="491" y="865"/>
      <point x="367" y="732"/>
      <point x="367" y="611" type="qcurve"/>
      <point x="367" y="10" type="line"/>
    </contour>
  </outline>
</glyph>
<glyph name="s" format="2">
  <advance width="1034"/>
  <unicode hex="0073"/>
  <outline>
    <contour>
      <point x="76" y="773" type="qcurve"/>
      <point x="76" y="923"/>
      <point x="316" y="1108"/>
      <point x="518" y="1108" type="qcurve"/>
      <point x="715" y="1108"/>
      <point x="951" y="919"/>
      <point x="955" y="776" type="qcurve"/>
      <point x="706" y="776" type="line"/>
      <point x="702" y="836"/>
      <point x="599" y="918"/>
      <point x="514" y="918" type="qcurve"/>
      <point x="434" y="918"/>
      <point x="337" y="850"/>
      <point x="337" y="791" type="qcurve"/>
      <point x="337" y="702"/>
      <point x="485" y="668" type="qcurve"/>
      <point x="690" y="623" type="line"/>
      <point x="846" y="589"/>
      <point x="984" y="452"/>
      <point x="984" y="334" type="qcurve"/>
      <point x="984" y="231"/>
      <point x="867" y="75"/>
      <point x="656" y="-13"/>
      <point x="517" y="-13" type="qcurve"/>
      <point x="307" y="-13"/>
      <point x="62" y="178"/>
      <point x="50" y="321" type="qcurve"/>
      <point x="315" y="321" type="line"/>
      <point x="339" y="177"/>
      <point x="525" y="177" type="qcurve"/>
      <point x="706" y="177"/>
      <point x="713" y="302" type="qcurve"/>
      <point x="713" y="349"/>
      <point x="647" y="403"/>
      <point x="574" y="421" type="qcurve"/>
      <point x="376" y="466" type="line"/>
      <point x="76" y="541"/>
    </contour>
  </outline>
</glyph>
<glyph name="t" format="2">
  <advance width="708"/>
  <unicode hex="0074"/>
  <outline>
    <contour>
      <point x="173" y="1336" type="line"/>
      <point x="445" y="1336" type="line"/>
      <point x="445" y="1084" type="line"/>
      <point x="643" y="1084" type="line"/>
      <point x="643" y="879" type="line"/>
      <point x="445" y="879" type="line"/>
      <point x="445" y="346" type="line"/>
      <point x="445" y="279"/>
      <point x="512" y="213"/>
      <point x="581" y="213" type="qcurve"/>
      <point x="621" y="213"/>
      <point x="642" y="216" type="qcurve"/>
      <point x="642" y="16" type="line"/>
      <point x="600" y="6"/>
      <point x="513" y="6" type="qcurve"/>
      <point x="328" y="6"/>
      <point x="173" y="141"/>
      <point x="173" y="295" type="qcurve"/>
      <point x="173" y="879" type="line"/>
      <point x="22" y="879" type="line"/>
      <point x="22" y="1084" type="line"/>
      <point x="173" y="1084" type="line"/>
    </contour>
  </outline>
</glyph>
<glyph name="u" format="2">
  <advance width="1160"/>
  <unicode hex="0075"/>
  <outline>
    <contour>
      <point x="1065" y="1084" type="line"/>
      <point x="1065" y="10" type="line"/>
      <point x="803" y="10" type="line"/>
      <point x="803" y="177" type="line"/>
      <point x="769" y="177" type="line"/>
      <point x="739" y="99"/>
      <point x="584" y="-10"/>
      <point x="466" y="-10" type="qcurve"/>
      <point x="297" y="-10"/>
      <point x="90" y="203"/>
      <point x="90" y="389" type="qcurve"/>
      <point x="90" y="1084" type="line"/>
      <point x="362" y="1084" type="line"/>
      <point x="362" y="451" type="line"/>
      <point x="362" y="219"/>
      <point x="572" y="218" type="qcurve"/>
      <point x="675" y="218"/>
      <point x="793" y="355"/>
      <point x="793" y="468" type="qcurve"/>
      <point x="793" y="1084" type="line"/>
    </contour>
  </outline>
</glyph>
<glyph name="v" format="2">
  <advance width="1053"/>
  <unicode hex="0076"/>
  <outline>
    <contour>
      <point x="1047" y="1084" type="line"/>
      <point x="686" y="10" type="line"/>
      <point x="370" y="10" type="line"/>
      <point x="6" y="1084" type="line"/>
      <point x="298" y="1084" type="line"/>
      <point x="513" y="284" type="line"/>
      <point x="549" y="284" type="line"/>
      <point x="763" y="1084" type="line"/>
    </contour>
  </outline>
</glyph>
<glyph name="w" format="2">
  <advance width="1592"/>
  <unicode hex="0077"/>
  <outline>
    <contour>
      <point x="1573" y="1084" type="line"/>
      <point x="1295" y="10" type="line"/>
      <point x="999" y="10" type="line"/>
      <point x="812" y="753" type="line"/>
      <point x="776" y="753" type="line"/>
      <point x="591" y="10" type="line"/>
      <point x="299" y="10" type="line"/>
      <point x="19" y="1084" type="line"/>
      <point x="292" y="1084" type="line"/>
      <point x="448" y="303" type="line"/>
      <point x="483" y="303" type="line"/>
      <point x="666" y="1084" type="line"/>
      <point x="930" y="1084" type="line"/>
      <point x="1114" y="303" type="line"/>
      <point x="1150" y="303" type="line"/>
      <point x="1307" y="1084" type="line"/>
    </contour>
  </outline>
</glyph>
<glyph name="x" format="2">
  <advance width="1045"/>
  <unicode hex="0078"/>
  <outline>
    <contour>
      <point x="540" y="359" type="line"/>
      <point x="490" y="359" type="line"/>
      <point x="305" y="10" type="line"/>
      <point x="22" y="10" type="line"/>
      <point x="352" y="545" type="line"/>
      <point x="24" y="1084" type="line"/>
      <point x="329" y="1084" type="line"/>
      <point x="506" y="745" type="line"/>
      <point x="556" y="745" type="line"/>
      <point x="730" y="1084" type="line"/>
      <point x="1024" y="1084" type="line"/>
      <point x="696" y="553" type="line"/>
      <point x="1022" y="10" type="line"/>
      <point x="728" y="10" type="line"/>
    </contour>
  </outline>
</glyph>
<glyph name="y" format="2">
  <advance width="1084"/>
  <unicode hex="0079"/>
  <outline>
    <contour>
      <point x="218" y="-387" type="qcurve"/>
      <point x="211" y="-387"/>
      <point x="118" y="-385"/>
      <point x="118" y="-385" type="qcurve"/>
      <point x="118" y="-176" type="line"/>
      <point x="113" y="-175"/>
      <point x="173" y="-176"/>
      <point x="181" y="-176" type="qcurve"/>
      <point x="265" y="-176"/>
      <point x="356" y="-116"/>
      <point x="371" y="-46" type="qcurve"/>
      <point x="371" y="-44"/>
      <point x="376" y="-23"/>
      <point x="381" y="0"/>
      <point x="381" y="6" type="qcurve"/>
      <point x="11" y="1092" type="line"/>
      <point x="311" y="1092" type="line"/>
      <point x="531" y="267" type="line"/>
      <point x="566" y="267" type="line"/>
      <point x="786" y="1092" type="line"/>
      <point x="1073" y="1092" type="line"/>
      <point x="709" y="-14" type="line"/>
      <point x="644" y="-218"/>
      <point x="419" y="-387"/>
    </contour>
  </outline>
</glyph>
<glyph name="z" format="2">
  <advance width="1015"/>
  <unicode hex="007A"/>
  <outline>
    <contour>
      <point x="75" y="10" type="line"/>
      <point x="75" y="166" type="line"/>
      <point x="579" y="818" type="line"/>
      <point x="579" y="876" type="line"/>
      <point x="83" y="876" type="line"/>
      <point x="83" y="1084" type="line"/>
      <point x="928" y="1084" type="line"/>
      <point x="928" y="908" type="line"/>
      <point x="456" y="277" type="line"/>
      <point x="456" y="219" type="line"/>
      <point x="940" y="219" type="line"/>
      <point x="940" y="10" type="line"/>
    </contour>
  </outline>
</glyph>
<glyph name="reh-arab" format="2">
  <advance width="752"/>
  <unicode hex="0631"/>
  <anchor x="286" y="-459" name="bottom-arab"/>
  <anchor x="476" y="916" name="top-arab"/>
  <outline>
    <contour>
      <point x="-80" y="-269" type="line"/>
      <point x="99" y="-269" type="line"/>
      <point x="224" y="-269"/>
      <point x="343" y="-141"/>
      <point x="343" y="3" type="qcurve"/>
      <point x="343" y="956" type="line"/>
      <point x="608" y="956" type="line"/>
      <point x="608" y="-2" type="line"/>
      <point x="608" y="-249"/>
      <point x="357" y="-498"/>
      <point x="111" y="-517" type="qcurve"/>
      <point x="-80" y="-517" type="line"/>
    </contour>
  </outline>
</glyph>
<glyph name="seen-arab" format="2">
  <advance width="2622"/>
  <unicode hex="0633"/>
  <anchor x="1822" y="0" name="bottom-arab"/>
  <anchor x="1829" y="930" name="top-arab"/>
  <outline>
    <contour>
      <point x="1985" y="-40"/>
      <point x="1820" y="79"/>
      <point x="1769" y="195" type="qcurve"/>
      <point x="1812" y="195" type="line"/>
      <point x="1828" y="183"/>
      <point x="1836" y="172" type="qcurve"/>
      <point x="1796" y="75"/>
      <point x="1683" y="8" type="qcurve"/>
      <point x="1598" y="-40"/>
      <point x="1482" y="-40" type="qcurve"/>
      <point x="1318" y="-40" type="line"/>
      <point x="1301" y="-161"/>
      <point x="1143" y="-383"/>
      <point x="883" y="-499"/>
      <point x="713" y="-499" type="qcurve"/>
      <point x="521" y="-499"/>
      <point x="241" y="-353"/>
      <point x="93" y="-76"/>
      <point x="89" y="111" type="qcurve"/>
      <point x="89" y="513" type="line"/>
      <point x="361" y="513" type="line"/>
      <point x="361" y="111" type="line"/>
      <point x="358" y="-9"/>
      <point x="441" y="-177"/>
      <point x="600" y="-265"/>
      <point x="713" y="-265" type="qcurve"/>
      <point x="826" y="-265"/>
      <point x="982" y="-177"/>
      <point x="1066" y="-8"/>
      <point x="1066" y="154" type="qcurve"/>
      <point x="1066" y="424" type="line"/>
      <point x="1066" y="956" type="line"/>
      <point x="1331" y="956" type="line"/>
      <point x="1331" y="425" type="line"/>
      <point x="1331" y="194" type="line"/>
      <point x="1483" y="194" type="line"/>
      <point x="1584" y="194"/>
      <point x="1640" y="252" type="qcurve"/>
      <point x="1662" y="274"/>
      <point x="1675" y="304" type="qcurve"/>
      <point x="1696" y="351"/>
      <point x="1696" y="425" type="qcurve"/>
      <point x="1696" y="956" type="line"/>
      <point x="1962" y="956" type="line"/>
      <point x="1962" y="425" type="line"/>
      <point x="1962" y="306"/>
      <point x="2066" y="194"/>
      <point x="2144" y="194" type="qcurve"/>
      <point x="2178" y="194"/>
      <point x="2282" y="306"/>
      <point x="2282" y="425" type="qcurve"/>
      <point x="2282" y="956" type="line"/>
      <point x="2548" y="956" type="line"/>
      <point x="2548" y="423" type="line"/>
      <point x="2531" y="199"/>
      <point x="2313" y="-40"/>
      <point x="2121" y="-40" type="qcurve"/>
    </contour>
  </outline>
</glyph>
<glyph name="sad-arab" format="2">
  <advance width="2613"/>
  <unicode hex="0635"/>
  <anchor x="1743" y="0" name="bottom-arab"/>
  <anchor x="1813" y="815" name="top-arab"/>
  <outline>
    <contour>
      <point x="2253" y="900"/>
      <point x="2510" y="618"/>
      <point x="2510" y="409" type="qcurve"/>
      <point x="2510" y="196"/>
      <point x="2254" y="-40"/>
      <point x="2015" y="-40" type="qcurve"/>
      <point x="1318" y="-40" type="line"/>
      <point x="1302" y="-161"/>
      <point x="1143" y="-383"/>
      <point x="883" y="-499"/>
      <point x="714" y="-499" type="qcurve"/>
      <point x="521" y="-499"/>
      <point x="241" y="-353"/>
      <point x="93" y="-76"/>
      <point x="85" y="112" type="qcurve"/>
      <point x="85" y="513" type="line"/>
      <point x="365" y="513" type="line"/>
      <point x="365" y="112" type="line"/>
      <point x="358" y="-9"/>
      <point x="442" y="-177"/>
      <point x="600" y="-265"/>
      <point x="714" y="-265" type="qcurve"/>
      <point x="826" y="-265"/>
      <point x="984" y="-177"/>
      <point x="1067" y="-8"/>
      <point x="1067" y="114" type="qcurve"/>
      <point x="1067" y="615" type="line"/>
      <point x="1067" y="856" type="line"/>
      <point x="1341" y="856" type="line"/>
      <point x="1341" y="690" type="line"/>
      <point x="2014" y="855" type="line"/>
    </contour>
    <contour>
      <point x="2135" y="194"/>
      <point x="2245" y="304"/>
      <point x="2245" y="409" type="qcurve"/>
      <point x="2245" y="513"/>
      <point x="2138" y="620"/>
      <point x="2029" y="597" type="qcurve"/>
      <point x="1332" y="431" type="line"/>
      <point x="1332" y="194" type="line"/>
      <point x="2015" y="194" type="line"/>
    </contour>
  </outline>
</glyph>
<glyph name="tah-arab" format="2">
  <advance width="1820"/>
  <unicode hex="0637"/>
  <anchor x="1118" y="0" name="bottom-arab"/>
  <anchor x="1118" y="816" name="top-arab"/>
  <outline>
    <contour>
      <point x="1452" y="409" type="qcurve"/>
      <point x="1452" y="513"/>
      <point x="1346" y="620"/>
      <point x="1236" y="597" type="qcurve"/>
      <point x="539" y="431" type="line"/>
      <point x="539" y="194" type="line"/>
      <point x="1222" y="194" type="line"/>
      <point x="1343" y="194"/>
      <point x="1452" y="304"/>
    </contour>
    <contour>
      <point x="94" y="-40" type="line"/>
      <point x="94" y="194" type="line"/>
      <point x="207" y="194"/>
      <point x="249" y="194" type="qcurve"/>
      <point x="249" y="194"/>
      <point x="274" y="194" type="qcurve"/>
      <point x="274" y="617" type="line"/>
      <point x="274" y="1091" type="line"/>
      <point x="274" y="1496" type="line"/>
      <point x="539" y="1496" type="line"/>
      <point x="539" y="1091" type="line"/>
      <point x="539" y="688" type="line"/>
      <point x="1222" y="855" type="line"/>
      <point x="1460" y="900"/>
      <point x="1717" y="618"/>
      <point x="1717" y="409" type="qcurve"/>
      <point x="1717" y="196"/>
      <point x="1462" y="-40"/>
      <point x="1222" y="-40" type="qcurve"/>
    </contour>
  </outline>
</glyph>
<glyph name="waw-arab" format="2">
  <advance width="1182"/>
  <unicode hex="0648"/>
  <anchor x="388" y="-458" name="bottom-arab"/>
  <anchor x="581" y="944" name="top-arab"/>
  <outline>
    <contour>
      <point x="721" y="984"/>
      <point x="939" y="853"/>
      <point x="1059" y="607"/>
      <point x="1059" y="444" type="qcurve"/>
      <point x="1059" y="163" type="line"/>
      <point x="1059" y="-170"/>
      <point x="727" y="-498"/>
      <point x="388" y="-498" type="qcurve"/>
      <point x="115" y="-498" type="line"/>
      <point x="115" y="-254" type="line"/>
      <point x="391" y="-254" type="line"/>
      <point x="571" y="-254"/>
      <point x="755" y="-126"/>
      <point x="773" y="-40" type="qcurve"/>
      <point x="644" y="-40" type="line"/>
      <point x="376" y="-40"/>
      <point x="103" y="219"/>
      <point x="103" y="475" type="qcurve"/>
      <point x="103" y="621"/>
      <point x="225" y="853"/>
      <point x="443" y="984"/>
      <point x="581" y="984" type="qcurve"/>
    </contour>
    <contour>
      <point x="795" y="194" type="line"/>
      <point x="794" y="408" type="line"/>
      <point x="794" y="596"/>
      <point x="683" y="750"/>
      <point x="581" y="750" type="qcurve"/>
      <point x="520" y="750"/>
      <point x="424" y="683"/>
      <point x="368" y="558"/>
      <point x="368" y="475" type="qcurve"/>
      <point x="368" y="330"/>
      <point x="501" y="194"/>
      <point x="644" y="194" type="qcurve"/>
    </contour>
  </outline>
</glyph>
<glyph name="yeh-arab" format="2">
  <advance width="1805"/>
  <unicode hex="064A"/>
  <anchor x="833" y="-389" name="bottom-arab"/>
  <anchor x="589" y="653" name="top-arab"/>
  <outline>
    <contour>
      <point x="1158" y="-240" type="qcurve"/>
      <point x="703" y="-240" type="line"/>
      <point x="411" y="-240"/>
      <point x="270" y="-93" type="qcurve"/>
      <point x="138" y="42"/>
      <point x="138" y="301" type="qcurve"/>
      <point x="138" y="574" type="line"/>
      <point x="399" y="574" type="line"/>
      <point x="399" y="302" type="line"/>
      <point x="399" y="199"/>
      <point x="429" y="133" type="qcurve"/>
      <point x="459" y="62"/>
      <point x="591" y="-6"/>
      <point x="703" y="-6" type="qcurve"/>
      <point x="1140" y="-6" type="line"/>
      <point x="1330" y="-6"/>
      <point x="1440" y="104"/>
      <point x="1440" y="209" type="qcurve"/>
      <point x="1440" y="313"/>
      <point x="1330" y="423"/>
      <point x="1210" y="423" type="qcurve"/>
      <point x="777" y="423" type="line"/>
      <point x="777" y="604" type="line"/>
      <point x="1203" y="1061" type="line"/>
      <point x="1405" y="918" type="line"/>
      <point x="1116" y="632" type="line"/>
      <point x="1451" y="657"/>
      <point x="1705" y="420"/>
      <point x="1705" y="209" type="qcurve"/>
      <point x="1705" y="-4"/>
      <point x="1578" y="-121" type="qcurve"/>
      <point x="1459" y="-232"/>
    </contour>
    <contour>
      <point x="525" y="-464" type="qcurve"/>
      <point x="525" y="-402"/>
      <point x="614" y="-314"/>
      <point x="676" y="-314" type="qcurve"/>
      <point x="739" y="-314"/>
      <point x="828" y="-402"/>
      <point x="828" y="-464" type="qcurve"/>
      <point x="828" y="-526"/>
      <point x="738" y="-613"/>
      <point x="676" y="-613" type="qcurve"/>
      <point x="614" y="-613"/>
      <point x="525" y="-525"/>
    </contour>
    <contour>
      <point x="917" y="-464" type="qcurve"/>
      <point x="917" y="-402"/>
      <point x="1006" y="-314"/>
      <point x="1068" y="-314" type="qcurve"/>
      <point x="1131" y="-314"/>
      <point x="1220" y="-402"/>
      <point x="1220" y="-464" type="qcurve"/>
      <point x="1220" y="-526"/>
      <point x="1130" y="-613"/>
      <point x="1068" y="-613" type="qcurve"/>
      <point x="1006" y="-613"/>
      <point x="917" y="-525"/>
    </contour>
  </outline>
</glyph>
<glyph name="percentsign-arab" format="2">
  <advance width="1678"/>
  <unicode hex="066A"/>
  <outline>
    <contour>
      <point x="289" y="741"/>
      <point x="131" y="837"/>
      <point x="46" y="1010"/>
      <point x="46" y="1120" type="qcurve"/>
      <point x="46" y="1231"/>
      <point x="131" y="1404"/>
      <point x="289" y="1500"/>
      <point x="390" y="1500" type="qcurve"/>
      <point x="491" y="1500"/>
      <point x="648" y="1402"/>
      <point x="733" y="1231"/>
      <point x="733" y="1120" type="qcurve"/>
      <point x="733" y="1009"/>
      <point x="648" y="839"/>
      <point x="491" y="741"/>
      <point x="390" y="741" type="qcurve"/>
    </contour>
    <contour>
      <point x="1240" y="1483" type="line"/>
      <point x="1500" y="1483" type="line"/>
      <point x="440" y="-40" type="line"/>
      <point x="178" y="-40" type="line"/>
    </contour>
    <contour>
      <point x="428" y="940"/>
      <point x="488" y="981"/>
      <point x="523" y="1063"/>
      <point x="523" y="1120" type="qcurve"/>
      <point x="523" y="1177"/>
      <point x="488" y="1259"/>
      <point x="428" y="1300"/>
      <point x="390" y="1300" type="qcurve"/>
      <point x="352" y="1300"/>
      <point x="292" y="1258"/>
      <point x="256" y="1177"/>
      <point x="256" y="1120" type="qcurve"/>
      <point x="256" y="1063"/>
      <point x="292" y="982"/>
      <point x="352" y="940"/>
      <point x="390" y="940" type="qcurve"/>
    </contour>
    <contour>
      <point x="1188" y="-56"/>
      <point x="1030" y="40"/>
      <point x="945" y="213"/>
      <point x="945" y="323" type="qcurve"/>
      <point x="945" y="434"/>
      <point x="1030" y="607"/>
      <point x="1188" y="703"/>
      <point x="1289" y="703" type="qcurve"/>
      <point x="1390" y="703"/>
      <point x="1547" y="605"/>
      <point x="1632" y="434"/>
      <point x="1632" y="323" type="qcurve"/>
      <point x="1632" y="212"/>
      <point x="1547" y="42"/>
      <point x="1390" y="-56"/>
      <point x="1289" y="-56" type="qcurve"/>
    </contour>
    <contour>
      <point x="1327" y="143"/>
      <point x="1387" y="184"/>
      <point x="1422" y="266"/>
      <point x="1422" y="323" type="qcurve"/>
      <point x="1422" y="380"/>
      <point x="1387" y="462"/>
      <point x="1327" y="503"/>
      <point x="1289" y="503" type="qcurve"/>
      <point x="1251" y="503"/>
      <point x="1191" y="461"/>
      <point x="1155" y="380"/>
      <point x="1155" y="323" type="qcurve"/>
      <point x="1155" y="266"/>
      <point x="1191" y="185"/>
      <point x="1251" y="143"/>
      <point x="1289" y="143" type="qcurve"/>
    </contour>
  </outline>
</glyph>
<glyph name="thousandsseparator-arab" format="2">
  <advance width="621"/>
  <unicode hex="066C"/>
  <outline>
    <contour>
      <point x="200" y="262" type="line"/>
      <point x="470" y="262" type="line"/>
      <point x="311" y="-327" type="line"/>
      <point x="87" y="-327" type="line"/>
    </contour>
  </outline>
</glyph>
<glyph name="symboltwodotsbelowmod-arab" format="2">
  <advance width="50"/>
  <unicode hex="FBB5"/>
  <anchor x="317" y="618" name="bottom-arab"/>
  <anchor x="317" y="208" name="bottom-arab"/>
  <outline>
    <contour>
      <point x="74" y="183"/>
      <point x="-6" y="262"/>
      <point x="-6" y="317" type="qcurve"/>
      <point x="-6" y="373"/>
      <point x="74" y="452"/>
      <point x="130" y="452" type="qcurve"/>
      <point x="187" y="452"/>
      <point x="267" y="373"/>
      <point x="267" y="317" type="qcurve"/>
      <point x="267" y="261"/>
      <point x="186" y="183"/>
      <point x="130" y="183" type="qcurve"/>
    </contour>
    <contour>
      <point x="435" y="183"/>
      <point x="355" y="262"/>
      <point x="355" y="317" type="qcurve"/>
      <point x="355" y="373"/>
      <point x="435" y="452"/>
      <point x="491" y="452" type="qcurve"/>
      <point x="548" y="452"/>
      <point x="628" y="373"/>
      <point x="628" y="317" type="qcurve"/>
      <point x="628" y="261"/>
      <point x="547" y="183"/>
      <point x="491" y="183" type="qcurve"/>
    </contour>
  </outline>
</glyph>
<glyph name="symbolthreedotsabovemod-arab" format="2">
  <advance width="50"/>
  <unicode hex="FBB6"/>
  <anchor x="333" y="18" name="top-arab"/>
  <anchor x="332" y="695" name="top-arab"/>
  <outline>
    <contour>
      <point x="266" y="617"/>
      <point x="186" y="696"/>
      <point x="186" y="751" type="qcurve"/>
      <point x="186" y="807"/>
      <point x="266" y="886"/>
      <point x="322" y="886" type="qcurve"/>
      <point x="379" y="886"/>
      <point x="459" y="807"/>
      <point x="459" y="751" type="qcurve"/>
      <point x="459" y="695"/>
      <point x="378" y="617"/>
      <point x="322" y="617" type="qcurve"/>
    </contour>
    <contour>
      <point x="74" y="283"/>
      <point x="-6" y="362"/>
      <point x="-6" y="417" type="qcurve"/>
      <point x="-6" y="473"/>
      <point x="74" y="552"/>
      <point x="130" y="552" type="qcurve"/>
      <point x="187" y="552"/>
      <point x="267" y="473"/>
      <point x="267" y="417" type="qcurve"/>
      <point x="267" y="361"/>
      <point x="186" y="283"/>
      <point x="130" y="283" type="qcurve"/>
    </contour>
    <contour>
      <point x="475" y="283"/>
      <point x="395" y="362"/>
      <point x="395" y="417" type="qcurve"/>
      <point x="395" y="473"/>
      <point x="475" y="552"/>
      <point x="531" y="552" type="qcurve"/>
      <point x="588" y="552"/>
      <point x="668" y="473"/>
      <point x="668" y="417" type="qcurve"/>
      <point x="668" y="361"/>
      <point x="587" y="283"/>
      <point x="531" y="283" type="qcurve"/>
    </contour>
  </outline>
</glyph>
<glyph name="reh-arab.fina" format="2">
  <advance width="814"/>
  <unicode hex="FEAE"/>
  <anchor x="286" y="-459" name="bottom-arab"/>
  <anchor x="476" y="916" name="top-arab"/>
  <outline>
    <contour>
      <point x="607" y="-40" type="line"/>
      <point x="598" y="-259"/>
      <point x="483" y="-373" type="qcurve"/>
      <point x="357" y="-498"/>
      <point x="111" y="-517" type="qcurve"/>
      <point x="-80" y="-517" type="line"/>
      <point x="-80" y="-269" type="line"/>
      <point x="99" y="-269" type="line"/>
      <point x="224" y="-269"/>
      <point x="343" y="-141"/>
      <point x="343" y="3" type="qcurve"/>
      <point x="343" y="956" type="line"/>
      <point x="615" y="956" type="line"/>
      <point x="615" y="194" type="line"/>
      <point x="846" y="194" type="line"/>
      <point x="891" y="175" type="line"/>
      <point x="891" y="-21" type="line"/>
      <point x="846" y="-40" type="line"/>
    </contour>
  </outline>
</glyph>
<glyph name="seen-arab.fina" format="2">
  <advance width="2753"/>
  <unicode hex="FEB2"/>
  <anchor x="1822" y="0" name="bottom-arab"/>
  <anchor x="1829" y="930" name="top-arab"/>
  <outline>
    <contour>
      <point x="2401" y="59" type="qcurve"/>
      <point x="2295" y="-40"/>
      <point x="2121" y="-40" type="qcurve"/>
      <point x="1985" y="-40"/>
      <point x="1903" y="20" type="qcurve"/>
      <point x="1849" y="58"/>
      <point x="1808" y="121" type="qcurve"/>
      <point x="1765" y="57"/>
      <point x="1683" y="8" type="qcurve"/>
      <point x="1598" y="-40"/>
      <point x="1482" y="-40" type="qcurve"/>
      <point x="1318" y="-40" type="line"/>
      <point x="1301" y="-161"/>
      <point x="1143" y="-383"/>
      <point x="883" y="-499"/>
      <point x="713" y="-499" type="qcurve"/>
      <point x="521" y="-499"/>
      <point x="241" y="-353"/>
      <point x="93" y="-76"/>
      <point x="89" y="111" type="qcurve"/>
      <point x="89" y="513" type="line"/>
      <point x="361" y="513" type="line"/>
      <point x="361" y="111" type="line"/>
      <point x="358" y="-9"/>
      <point x="441" y="-177"/>
      <point x="600" y="-265"/>
      <point x="713" y="-265" type="qcurve"/>
      <point x="826" y="-265"/>
      <point x="982" y="-177"/>
      <point x="1066" y="-8"/>
      <point x="1066" y="154" type="qcurve"/>
      <point x="1066" y="956" type="line"/>
      <point x="1331" y="956" type="line"/>
      <point x="1331" y="194" type="line"/>
      <point x="1483" y="194" type="line"/>
      <point x="1584" y="194"/>
      <point x="1640" y="252" type="qcurve"/>
      <point x="1662" y="274"/>
      <point x="1675" y="304" type="qcurve"/>
      <point x="1696" y="351"/>
      <point x="1696" y="425" type="qcurve"/>
      <point x="1696" y="956" type="line"/>
      <point x="1962" y="956" type="line"/>
      <point x="1962" y="425" type="line"/>
      <point x="1962" y="306"/>
      <point x="2066" y="194"/>
      <point x="2144" y="194" type="qcurve"/>
      <point x="2178" y="194"/>
      <point x="2282" y="306"/>
      <point x="2282" y="425" type="qcurve"/>
      <point x="2282" y="956" type="line"/>
      <point x="2548" y="956" type="line"/>
      <point x="2548" y="423" type="line"/>
      <point x="2544" y="368"/>
      <point x="2534" y="319" type="qcurve"/>
      <point x="2549" y="272"/>
      <point x="2567" y="253" type="qcurve"/>
      <point x="2622" y="194"/>
      <point x="2732" y="194" type="qcurve"/>
      <point x="2781" y="194" type="line"/>
      <point x="2825" y="171" type="line"/>
      <point x="2825" y="-21" type="line"/>
      <point x="2780" y="-40" type="line"/>
      <point x="2689" y="-40" type="line"/>
      <point x="2552" y="-40"/>
      <point x="2454" y="19" type="qcurve"/>
      <point x="2427" y="35"/>
    </contour>
  </outline>
</glyph>
<glyph name="seen-arab.init" format="2">
  <advance width="1728"/>
  <unicode hex="FEB3"/>
  <anchor x="909" y="0" name="bottom-arab"/>
  <anchor x="949" y="930" name="top-arab"/>
  <outline>
    <contour>
      <point x="1238" y="-40" type="qcurve"/>
      <point x="1102" y="-40"/>
      <point x="1015" y="20" type="qcurve"/>
      <point x="943" y="68"/>
      <point x="914" y="118" type="qcurve"/>
      <point x="884" y="63"/>
      <point x="715" y="-40"/>
      <point x="599" y="-40" type="qcurve"/>
      <point x="-27" y="-40" type="line"/>
      <point x="-91" y="-19" type="line"/>
      <point x="-91" y="173" type="line"/>
      <point x="-27" y="194" type="line"/>
      <point x="183" y="194" type="line"/>
      <point x="183" y="956" type="line"/>
      <point x="448" y="956" type="line"/>
      <point x="448" y="194" type="line"/>
      <point x="600" y="194" type="line"/>
      <point x="701" y="194"/>
      <point x="756" y="252" type="qcurve"/>
      <point x="813" y="307"/>
      <point x="813" y="416" type="qcurve"/>
      <point x="813" y="956" type="line"/>
      <point x="1079" y="956" type="line"/>
      <point x="1079" y="416" type="line"/>
      <point x="1079" y="296"/>
      <point x="1154" y="194"/>
      <point x="1231" y="194" type="qcurve"/>
      <point x="1304" y="194"/>
      <point x="1399" y="296"/>
      <point x="1399" y="416" type="qcurve"/>
      <point x="1399" y="956" type="line"/>
      <point x="1665" y="956" type="line"/>
      <point x="1665" y="414" type="line"/>
      <point x="1648" y="198"/>
      <point x="1431" y="-40"/>
    </contour>
  </outline>
</glyph>
<glyph name="seen-arab.medi" format="2">
  <advance width="1903"/>
  <unicode hex="FEB4"/>
  <anchor x="897" y="0" name="bottom-arab"/>
  <anchor x="967" y="930" name="top-arab"/>
  <outline>
    <contour>
      <point x="1697" y="279"/>
      <point x="1721" y="253" type="qcurve"/>
      <point x="1777" y="194"/>
      <point x="1887" y="194" type="qcurve"/>
      <point x="1936" y="194" type="line"/>
      <point x="1980" y="171" type="line"/>
      <point x="1980" y="-21" type="line"/>
      <point x="1935" y="-40" type="line"/>
      <point x="1844" y="-40" type="line"/>
      <point x="1707" y="-40"/>
      <point x="1609" y="19" type="qcurve"/>
      <point x="1576" y="38"/>
      <point x="1547" y="68" type="qcurve"/>
      <point x="1439" y="-40"/>
      <point x="1256" y="-40" type="qcurve"/>
      <point x="1120" y="-40"/>
      <point x="1033" y="19" type="qcurve"/>
      <point x="975" y="58"/>
      <point x="933" y="122" type="qcurve"/>
      <point x="891" y="56"/>
      <point x="818" y="11" type="qcurve"/>
      <point x="733" y="-40"/>
      <point x="617" y="-40" type="qcurve"/>
      <point x="-28" y="-40" type="line"/>
      <point x="-73" y="-21" type="line"/>
      <point x="-73" y="175" type="line"/>
      <point x="-28" y="194" type="line"/>
      <point x="202" y="194" type="line"/>
      <point x="201" y="278" type="line"/>
      <point x="201" y="956" type="line"/>
      <point x="466" y="956" type="line"/>
      <point x="466" y="194" type="line"/>
      <point x="618" y="194" type="line"/>
      <point x="719" y="194"/>
      <point x="774" y="252" type="qcurve"/>
      <point x="797" y="274"/>
      <point x="810" y="304" type="qcurve"/>
      <point x="831" y="351"/>
      <point x="831" y="416" type="qcurve"/>
      <point x="831" y="956" type="line"/>
      <point x="1097" y="956" type="line"/>
      <point x="1097" y="416" type="line"/>
      <point x="1097" y="306"/>
      <point x="1202" y="194"/>
      <point x="1279" y="194" type="qcurve"/>
      <point x="1312" y="194"/>
      <point x="1417" y="306"/>
      <point x="1417" y="416" type="qcurve"/>
      <point x="1417" y="956" type="line"/>
      <point x="1683" y="956" type="line"/>
      <point x="1683" y="414" type="line"/>
      <point x="1681" y="387"/>
    </contour>
  </outline>
</glyph>
<glyph name="sad-arab.init" format="2">
  <advance width="1678"/>
  <unicode hex="FEBB"/>
  <anchor x="966" y="0" name="bottom-arab"/>
  <anchor x="966" y="816" name="top-arab"/>
  <outline>
    <contour>
      <point x="1310" y="409" type="qcurve"/>
      <point x="1310" y="513"/>
      <point x="1204" y="620"/>
      <point x="1095" y="597" type="qcurve"/>
      <point x="397" y="431" type="line"/>
      <point x="397" y="194" type="line"/>
      <point x="1080" y="194" type="line"/>
      <point x="1200" y="194"/>
      <point x="1310" y="304"/>
    </contour>
    <contour>
      <point x="132" y="194" type="line"/>
      <point x="132" y="856" type="line"/>
      <point x="403" y="856" type="line"/>
      <point x="403" y="690" type="line"/>
      <point x="1080" y="855" type="line"/>
      <point x="1318" y="900"/>
      <point x="1575" y="618"/>
      <point x="1575" y="409" type="qcurve"/>
      <point x="1575" y="196"/>
      <point x="1320" y="-40"/>
      <point x="1080" y="-40" type="qcurve"/>
      <point x="-27" y="-40" type="line"/>
      <point x="-72" y="-21" type="line"/>
      <point x="-72" y="175" type="line"/>
      <point x="-27" y="194" type="line"/>
    </contour>
  </outline>
</glyph>
<glyph name="sad-arab.medi" format="2">
  <advance width="1713"/>
  <unicode hex="FEBC"/>
  <anchor x="964" y="0" name="bottom-arab"/>
  <anchor x="964" y="816" name="top-arab"/>
  <outline>
    <contour>
      <point x="1308" y="409" type="qcurve"/>
      <point x="1308" y="513"/>
      <point x="1202" y="620"/>
      <point x="1092" y="597" type="qcurve"/>
      <point x="395" y="431" type="line"/>
      <point x="395" y="194" type="line"/>
      <point x="1078" y="194" type="line"/>
      <point x="1199" y="194"/>
      <point x="1308" y="304"/>
    </contour>
    <contour>
      <point x="-29" y="-40" type="line"/>
      <point x="-74" y="-21" type="line"/>
      <point x="-74" y="175" type="line"/>
      <point x="-29" y="194" type="line"/>
      <point x="130" y="194" type="line"/>
      <point x="130" y="856" type="line"/>
      <point x="401" y="856" type="line"/>
      <point x="401" y="690" type="line"/>
      <point x="1078" y="855" type="line"/>
      <point x="1316" y="900"/>
      <point x="1573" y="618"/>
      <point x="1573" y="409" type="qcurve"/>
      <point x="1573" y="310"/>
      <point x="1545" y="231" type="qcurve"/>
      <point x="1599" y="194"/>
      <point x="1686" y="194" type="qcurve"/>
      <point x="1744" y="194" type="line"/>
      <point x="1779" y="173" type="line"/>
      <point x="1779" y="-22" type="line"/>
      <point x="1743" y="-40" type="line"/>
      <point x="1643" y="-40" type="line"/>
      <point x="1506" y="-40"/>
      <point x="1408" y="19" type="qcurve"/>
      <point x="1386" y="33" type="line"/>
      <point x="1267" y="-40"/>
      <point x="1078" y="-40" type="qcurve"/>
    </contour>
  </outline>
</glyph>
<glyph name="tah-arab.fina" format="2">
  <advance width="1862"/>
  <unicode hex="FEC2"/>
  <anchor x="1118" y="0" name="bottom-arab"/>
  <anchor x="1118" y="816" name="top-arab"/>
  <outline>
    <contour>
      <point x="1462" y="409" type="qcurve"/>
      <point x="1462" y="513"/>
      <point x="1356" y="620"/>
      <point x="1246" y="597" type="qcurve"/>
      <point x="549" y="431" type="line"/>
      <point x="549" y="194" type="line"/>
      <point x="1232" y="194" type="line"/>
      <point x="1353" y="194"/>
      <point x="1462" y="304"/>
    </contour>
    <contour>
      <point x="284" y="194" type="qcurve"/>
      <point x="284" y="617" type="line"/>
      <point x="284" y="1083" type="line"/>
      <point x="284" y="1496" type="line"/>
      <point x="549" y="1496" type="line"/>
      <point x="549" y="1083" type="line"/>
      <point x="549" y="688" type="line"/>
      <point x="1232" y="855" type="line"/>
      <point x="1470" y="900"/>
      <point x="1727" y="618"/>
      <point x="1727" y="409" type="qcurve"/>
      <point x="1727" y="293"/>
      <point x="1699" y="229" type="qcurve"/>
      <point x="1735" y="194"/>
      <point x="1840" y="194" type="qcurve"/>
      <point x="1889" y="194" type="line"/>
      <point x="1933" y="171" type="line"/>
      <point x="1933" y="-21" type="line"/>
      <point x="1888" y="-40" type="line"/>
      <point x="1797" y="-40" type="line"/>
      <point x="1663" y="-40"/>
      <point x="1562" y="49" type="qcurve"/>
      <point x="1442" y="-40"/>
      <point x="1232" y="-40" type="qcurve"/>
      <point x="104" y="-40" type="line"/>
      <point x="104" y="194" type="line"/>
      <point x="217" y="194"/>
      <point x="259" y="194" type="qcurve"/>
      <point x="259" y="194"/>
    </contour>
  </outline>
</glyph>
<glyph name="tah-arab.init" format="2">
  <advance width="1686"/>
  <unicode hex="FEC3"/>
  <anchor x="990" y="0" name="bottom-arab"/>
  <anchor x="990" y="816" name="top-arab"/>
  <outline>
    <contour>
      <point x="1318" y="409" type="qcurve"/>
      <point x="1318" y="513"/>
      <point x="1212" y="620"/>
      <point x="1102" y="597" type="qcurve"/>
      <point x="405" y="431" type="line"/>
      <point x="405" y="194" type="line"/>
      <point x="1088" y="194" type="line"/>
      <point x="1209" y="194"/>
      <point x="1318" y="304"/>
    </contour>
    <contour>
      <point x="140" y="194" type="line"/>
      <point x="140" y="617" type="line"/>
      <point x="140" y="1089" type="line"/>
      <point x="140" y="1496" type="line"/>
      <point x="405" y="1496" type="line"/>
      <point x="405" y="1089" type="line"/>
      <point x="405" y="688" type="line"/>
      <point x="1088" y="855" type="line"/>
      <point x="1326" y="900"/>
      <point x="1583" y="618"/>
      <point x="1583" y="409" type="qcurve"/>
      <point x="1583" y="196"/>
      <point x="1328" y="-40"/>
      <point x="1088" y="-40" type="qcurve"/>
      <point x="-29" y="-40" type="line"/>
      <point x="-74" y="-21" type="line"/>
      <point x="-74" y="175" type="line"/>
      <point x="-29" y="194" type="line"/>
    </contour>
  </outline>
</glyph>
<glyph name="tah-arab.medi" format="2">
  <advance width="1730"/>
  <unicode hex="FEC4"/>
  <anchor x="994" y="0" name="bottom-arab"/>
  <anchor x="994" y="816" name="top-arab"/>
  <outline>
    <contour>
      <point x="1322" y="409" type="qcurve"/>
      <point x="1322" y="513"/>
      <point x="1216" y="620"/>
      <point x="1106" y="597" type="qcurve"/>
      <point x="409" y="431" type="line"/>
      <point x="409" y="194" type="line"/>
      <point x="1092" y="194" type="line"/>
      <point x="1213" y="194"/>
      <point x="1322" y="304"/>
    </contour>
    <contour>
      <point x="1559" y="229" type="qcurve"/>
      <point x="1595" y="194"/>
      <point x="1700" y="194" type="qcurve"/>
      <point x="1758" y="194" type="line"/>
      <point x="1793" y="173" type="line"/>
      <point x="1793" y="-22" type="line"/>
      <point x="1757" y="-40" type="line"/>
      <point x="1657" y="-40" type="line"/>
      <point x="1524" y="-40"/>
      <point x="1424" y="59" type="qcurve"/>
      <point x="1301" y="-40"/>
      <point x="1092" y="-40" type="qcurve"/>
      <point x="-34" y="-40" type="line"/>
      <point x="-70" y="-22" type="line"/>
      <point x="-70" y="176" type="line"/>
      <point x="-34" y="194" type="line"/>
      <point x="144" y="194" type="line"/>
      <point x="144" y="617" type="line"/>
      <point x="144" y="1090" type="line"/>
      <point x="144" y="1496" type="line"/>
      <point x="409" y="1496" type="line"/>
      <point x="409" y="1090" type="line"/>
      <point x="409" y="688" type="line"/>
      <point x="1092" y="855" type="line"/>
      <point x="1330" y="900"/>
      <point x="1587" y="618"/>
      <point x="1587" y="409" type="qcurve"/>
      <point x="1587" y="293"/>
    </contour>
  </outline>
</glyph>
<glyph name="yeh-arab.fina" format="2">
  <advance width="2439"/>
  <unicode hex="FEF2"/>
  <anchor x="846" y="-499" name="bottom-arab"/>
  <anchor x="801" y="383" name="top-arab"/>
  <outline>
    <contour>
      <point x="685" y="-302" type="qcurve"/>
      <point x="685" y="-240"/>
      <point x="774" y="-152"/>
      <point x="836" y="-152" type="qcurve"/>
      <point x="899" y="-152"/>
      <point x="988" y="-240"/>
      <point x="988" y="-302" type="qcurve"/>
      <point x="988" y="-364"/>
      <point x="898" y="-451"/>
      <point x="836" y="-451" type="qcurve"/>
      <point x="774" y="-451"/>
      <point x="685" y="-363"/>
    </contour>
    <contour>
      <point x="1057" y="-302" type="qcurve"/>
      <point x="1057" y="-240"/>
      <point x="1146" y="-152"/>
      <point x="1208" y="-152" type="qcurve"/>
      <point x="1271" y="-152"/>
      <point x="1360" y="-240"/>
      <point x="1360" y="-302" type="qcurve"/>
      <point x="1360" y="-364"/>
      <point x="1270" y="-451"/>
      <point x="1208" y="-451" type="qcurve"/>
      <point x="1146" y="-451"/>
      <point x="1057" y="-363"/>
    </contour>
    <contour>
      <point x="1692" y="882" type="line"/>
      <point x="1659" y="879"/>
      <point x="1613" y="866" type="qcurve"/>
      <point x="1492" y="834"/>
      <point x="1395" y="723"/>
      <point x="1414" y="652" type="qcurve"/>
      <point x="1423" y="617"/>
      <point x="1481" y="523"/>
      <point x="1542" y="442" type="qcurve"/>
      <point x="1583" y="389" type="line"/>
      <point x="1653" y="300"/>
      <point x="1744" y="136"/>
      <point x="1786" y="-40" type="qcurve"/>
      <point x="706" y="-40" type="line"/>
      <point x="414" y="-40"/>
      <point x="273" y="107" type="qcurve"/>
      <point x="141" y="242"/>
      <point x="141" y="501" type="qcurve"/>
      <point x="141" y="774" type="line"/>
      <point x="402" y="774" type="line"/>
      <point x="402" y="502" type="line"/>
      <point x="402" y="399"/>
      <point x="432" y="333" type="qcurve"/>
      <point x="462" y="262"/>
      <point x="594" y="194"/>
      <point x="706" y="194" type="qcurve"/>
      <point x="1383" y="194" type="line"/>
      <point x="1311" y="285" type="line"/>
      <point x="1242" y="376"/>
      <point x="1156" y="519"/>
      <point x="1136" y="593" type="qcurve"/>
      <point x="1087" y="770"/>
      <point x="1316" y="1028"/>
      <point x="1555" y="1092" type="qcurve"/>
      <point x="1689" y="1129"/>
      <point x="1886" y="1159" type="qcurve"/>
      <point x="1949" y="1008" type="line"/>
      <point x="2280" y="271" type="line"/>
      <point x="2315" y="194"/>
      <point x="2431" y="194" type="qcurve"/>
      <point x="2462" y="194" type="line"/>
      <point x="2524" y="169" type="line"/>
      <point x="2524" y="-19" type="line"/>
      <point x="2460" y="-40" type="line"/>
      <point x="2368" y="-40" type="line"/>
      <point x="2231" y="-40"/>
      <point x="2133" y="19" type="qcurve"/>
      <point x="2095" y="42"/>
      <point x="2073" y="88" type="qcurve"/>
    </contour>
  </outline>
</glyph>
<glyph name="waslaar" format="2">
  <advance width="0"/>
  <anchor x="418" y="1049" name="top-arab"/>
  <anchor x="399" y="1495" name="top-arab"/>
  <outline>
    <contour>
      <point x="593" y="1650"/>
      <point x="680" y="1603"/>
      <point x="729" y="1521"/>
      <point x="729" y="1470" type="qcurve"/>
      <point x="729" y="1419"/>
      <point x="679" y="1334"/>
      <point x="593" y="1286"/>
      <point x="539" y="1286" type="qcurve"/>
      <point x="350" y="1286" type="line"/>
      <point x="241" y="1286"/>
      <point x="138" y="1383"/>
      <point x="127" y="1492" type="qcurve"/>
      <point x="21" y="1479" type="line"/>
      <point x="21" y="1583" type="line"/>
      <point x="232" y="1609" type="line"/>
      <point x="232" y="1545" type="line"/>
      <point x="232" y="1439"/>
      <point x="266" y="1391"/>
      <point x="315" y="1389" type="qcurve"/>
      <point x="308" y="1468"/>
      <point x="372" y="1585"/>
      <point x="476" y="1650"/>
      <point x="539" y="1650" type="qcurve"/>
    </contour>
    <contour>
      <point x="568" y="1388"/>
      <point x="608" y="1437"/>
      <point x="608" y="1467" type="qcurve"/>
      <point x="608" y="1498"/>
      <point x="569" y="1537"/>
      <point x="538" y="1537" type="qcurve"/>
      <point x="493" y="1537"/>
      <point x="430" y="1457"/>
      <point x="422" y="1389" type="qcurve"/>
      <point x="536" y="1388" type="line"/>
    </contour>
  </outline>
</glyph>
<glyph name="yeh-arab.alt.init" format="2">
  <advance width="674"/>
  <anchor x="292" y="-410" name="bottom-arab"/>
  <anchor x="386" y="916" name="top-arab"/>
  <outline>
    <contour>
      <point x="34" y="-40" type="line"/>
      <point x="-30" y="-19" type="line"/>
      <point x="-30" y="173" type="line"/>
      <point x="34" y="194" type="line"/>
      <point x="253" y="194" type="line"/>
      <point x="253" y="956" type="line"/>
      <point x="518" y="956" type="line"/>
      <point x="518" y="-40" type="line"/>
    </contour>
    <contour>
      <point x="208" y="-151"/>
      <point x="297" y="-239"/>
      <point x="297" y="-301" type="qcurve"/>
      <point x="297" y="-363"/>
      <point x="207" y="-450"/>
      <point x="145" y="-450" type="qcurve"/>
      <point x="83" y="-450"/>
      <point x="-6" y="-362"/>
      <point x="-6" y="-301" type="qcurve"/>
      <point x="-6" y="-239"/>
      <point x="83" y="-151"/>
      <point x="145" y="-151" type="qcurve"/>
    </contour>
    <contour>
      <point x="500" y="-151"/>
      <point x="589" y="-239"/>
      <point x="589" y="-301" type="qcurve"/>
      <point x="589" y="-363"/>
      <point x="499" y="-450"/>
      <point x="437" y="-450" type="qcurve"/>
      <point x="375" y="-450"/>
      <point x="286" y="-362"/>
      <point x="286" y="-301" type="qcurve"/>
      <point x="286" y="-239"/>
      <point x="375" y="-151"/>
      <point x="437" y="-151" type="qcurve"/>
    </contour>
  </outline>
</glyph>
<glyph name="yeh-arab.alt.medi" format="2">
  <advance width="856"/>
  <anchor x="420" y="-410" name="bottom-arab"/>
  <anchor x="428" y="816" name="top-arab"/>
  <outline>
    <contour>
      <point x="886" y="169" type="line"/>
      <point x="886" y="-19" type="line"/>
      <point x="822" y="-40" type="line"/>
      <point x="738" y="-40" type="line"/>
      <point x="596" y="-40"/>
      <point x="392" y="83"/>
      <point x="339" y="208" type="qcurve"/>
      <point x="414" y="208" type="line"/>
      <point x="372" y="85"/>
      <point x="198" y="-40"/>
      <point x="72" y="-40" type="qcurve"/>
      <point x="34" y="-40" type="line"/>
      <point x="-30" y="-19" type="line"/>
      <point x="-30" y="173" type="line"/>
      <point x="34" y="194" type="line"/>
      <point x="72" y="194" type="line"/>
      <point x="182" y="194"/>
      <point x="296" y="315"/>
      <point x="296" y="441" type="qcurve"/>
      <point x="296" y="856" type="line"/>
      <point x="561" y="856" type="line"/>
      <point x="561" y="441" type="line"/>
      <point x="561" y="314"/>
      <point x="674" y="194"/>
      <point x="784" y="194" type="qcurve"/>
      <point x="824" y="194" type="line"/>
    </contour>
    <contour>
      <point x="336" y="-151"/>
      <point x="425" y="-239"/>
      <point x="425" y="-301" type="qcurve"/>
      <point x="425" y="-363"/>
      <point x="335" y="-450"/>
      <point x="273" y="-450" type="qcurve"/>
      <point x="211" y="-450"/>
      <point x="122" y="-362"/>
      <point x="122" y="-301" type="qcurve"/>
      <point x="122" y="-239"/>
      <point x="211" y="-151"/>
      <point x="273" y="-151" type="qcurve"/>
    </contour>
    <contour>
      <point x="628" y="-151"/>
      <point x="717" y="-239"/>
      <point x="717" y="-301" type="qcurve"/>
      <point x="717" y="-363"/>
      <point x="627" y="-450"/>
      <point x="565" y="-450" type="qcurve"/>
      <point x="503" y="-450"/>
      <point x="414" y="-362"/>
      <point x="414" y="-301" type="qcurve"/>
      <point x="414" y="-239"/>
      <point x="503" y="-151"/>
      <point x="565" y="-151" type="qcurve"/>
    </contour>
  </outline>
</glyph>
